<svg xmlns="http://www.w3.org/2000/svg" xmlns:xlink="http://www.w3.org/1999/xlink" width="627" height="84" viewBox="0 0 627 84">
  <defs>
    <clipPath id="clip-path">
      <rect y="1" width="78" height="27" fill="none"/>
    </clipPath>
  </defs>
  <g id="Group_3830" data-name="Group 3830" transform="translate(-641.174 -3980.99)">
    <g id="Rectangle_23956" data-name="Rectangle 23956" transform="translate(653.174 3980.99)" fill="#fff" stroke="#0052d5" stroke-width="1">
      <rect width="615" height="78" rx="10" stroke="none"/>
      <rect x="0.5" y="0.5" width="614" height="77" rx="9.5" fill="none"/>
    </g>
    <g id="day" transform="translate(178.674 601.99)">
      <text id="_13:30_16:00" data-name="13:30〜16:00" transform="translate(934.146 3438.746)" fill="#0052d5" font-size="45" font-family="DIN2014-Bold, 'DIN \32 014'" font-weight="700"><tspan x="-130.77" y="0">13:30</tspan><tspan y="0" font-family="PingFangSC-Semibold, PingFang SC" font-weight="600">〜</tspan><tspan y="0">16:00</tspan></text>
      <g id="Group_3696" data-name="Group 3696" transform="translate(764.48 3407.162)">
        <g id="Rectangle_23884" data-name="Rectangle 23884" transform="translate(0)" fill="none" stroke="#0052d5" stroke-width="1">
          <rect width="33.541" height="33.541" stroke="none"/>
          <rect x="0.5" y="0.5" width="32.541" height="32.541" fill="none"/>
        </g>
        <text id="土" transform="translate(16.708 23.671)" fill="#0052d5" font-size="19" font-family="PingFangSC-Semibold, PingFang SC" font-weight="600"><tspan x="-9.5" y="0">土</tspan></text>
      </g>
      <text id="_8_24" data-name="8/24" transform="translate(683.355 3442)" fill="#0052d5" font-size="66" font-family="DIN2014-Bold, 'DIN \32 014'" font-weight="700"><tspan x="-69.465" y="0">8/24</tspan></text>
    </g>
    <g id="Group_3855" data-name="Group 3855">
      <path id="Path_148" data-name="Path 148" d="M11.057,0H123.84V78H11.057C4.95,78,0,73.523,0,68V10C0,4.477,4.95,0,11.057,0Z" transform="translate(641.174 3981.354)" fill="#0052d6"/>
      <g id="Scroll_Group_37" data-name="Scroll Group 37" transform="translate(665.174 4009.354)" clip-path="url(#clip-path)" style="isolation: isolate">
        <text id="next" transform="translate(39 22)" fill="#fff" font-size="29" font-family="Helvetica-Bold, Helvetica" font-weight="700"><tspan x="-38.671" y="0">NEXT</tspan></text>
      </g>
    </g>
  </g>
</svg>
